# xmcd
#
# Track frame offsets:
#	150
#	13628
#	34671
#	52028
#	77363
#	89056
#	101014
#	121646
#	130804
#	154160
#
# Disc length: 2147 seconds
#
# Revision: 0
# Processed by: cddbd v1.5.1PL0 Copyright (c) Steve Scherf et al.
# Submitted via: dBpowerAMP V4.0
#
DISCID=7408610a
DTITLE=Toby Burke - Winsome Lonesome
DYEAR=2004
DGENRE=Country
TTITLE0=walking dream
TTITLE1=cigarettes
TTITLE2=stop
TTITLE3=elevated train
TTITLE4=the way of winesome lonesome
TTITLE5=time can break your heart
TTITLE6=long face
TTITLE7=which train's she on ?
TTITLE8=30 seconds
TTITLE9=won't be bought
EXTD=This album can't be bought at www.loosemusic.com.  If you like music, buy music.
EXTT0=
EXTT1=
EXTT2=
EXTT3=
EXTT4=
EXTT5=
EXTT6=
EXTT7=
EXTT8=
EXTT9=
PLAYORDER=
